<mxfile host="app.diagrams.net" agent="Mozilla/5.0 (Windows NT 10.0; Win64; x64) AppleWebKit/537.36 (KHTML, like Gecko) Chrome/136.0.0.0 Safari/537.36" version="27.0.6">
  <diagram name="Página-1" id="XTqCIrZVjlVRCF7iQ4V_">
    <mxGraphModel dx="1342" dy="700" grid="1" gridSize="10" guides="1" tooltips="1" connect="1" arrows="1" fold="1" page="1" pageScale="1" pageWidth="827" pageHeight="1169" math="0" shadow="0">
      <root>
        <mxCell id="0" />
        <mxCell id="1" parent="0" />
        <mxCell id="SDZ9bIVXgv3AQElnDy6A-1" value="Cuenta" style="swimlane;fontStyle=1;align=center;verticalAlign=top;childLayout=stackLayout;horizontal=1;startSize=26;horizontalStack=0;resizeParent=1;resizeParentMax=0;resizeLast=0;collapsible=1;marginBottom=0;whiteSpace=wrap;html=1;" parent="1" vertex="1">
          <mxGeometry x="334" y="30" width="160" height="260" as="geometry" />
        </mxCell>
        <mxCell id="SDZ9bIVXgv3AQElnDy6A-2" value="&lt;div&gt;- saldo: float&lt;/div&gt;&lt;div&gt;- númeroConsignaciones: int = 0&lt;/div&gt;&lt;div&gt;- númeroRetiros: int = 0&lt;/div&gt;&lt;div&gt;- tasaAnual: float&lt;/div&gt;&lt;div&gt;- comisiónMensual: float = 0&lt;/div&gt;&lt;div&gt;&lt;br&gt;&lt;/div&gt;" style="text;strokeColor=none;fillColor=none;align=left;verticalAlign=top;spacingLeft=4;spacingRight=4;overflow=hidden;rotatable=0;points=[[0,0.5],[1,0.5]];portConstraint=eastwest;whiteSpace=wrap;html=1;" parent="SDZ9bIVXgv3AQElnDy6A-1" vertex="1">
          <mxGeometry y="26" width="160" height="94" as="geometry" />
        </mxCell>
        <mxCell id="SDZ9bIVXgv3AQElnDy6A-3" value="" style="line;strokeWidth=1;fillColor=none;align=left;verticalAlign=middle;spacingTop=-1;spacingLeft=3;spacingRight=3;rotatable=0;labelPosition=right;points=[];portConstraint=eastwest;strokeColor=inherit;" parent="SDZ9bIVXgv3AQElnDy6A-1" vertex="1">
          <mxGeometry y="120" width="160" height="8" as="geometry" />
        </mxCell>
        <mxCell id="SDZ9bIVXgv3AQElnDy6A-4" value="&lt;div&gt;+ Cuenta(saldo: float, tasa: float)&lt;/div&gt;&lt;div&gt;+ consignar(cantidad: float): void&lt;/div&gt;&lt;div&gt;+ retirar(cantidad: float): void&lt;/div&gt;&lt;div&gt;+ calcularInterés(): void&lt;/div&gt;&lt;div&gt;+ extractoMensual(): void&lt;/div&gt;&lt;div&gt;&lt;br&gt;&lt;/div&gt;" style="text;strokeColor=none;fillColor=none;align=left;verticalAlign=top;spacingLeft=4;spacingRight=4;overflow=hidden;rotatable=0;points=[[0,0.5],[1,0.5]];portConstraint=eastwest;whiteSpace=wrap;html=1;" parent="SDZ9bIVXgv3AQElnDy6A-1" vertex="1">
          <mxGeometry y="128" width="160" height="132" as="geometry" />
        </mxCell>
        <mxCell id="SDZ9bIVXgv3AQElnDy6A-6" value="CuentaAhorros" style="swimlane;fontStyle=1;align=center;verticalAlign=top;childLayout=stackLayout;horizontal=1;startSize=26;horizontalStack=0;resizeParent=1;resizeParentMax=0;resizeLast=0;collapsible=1;marginBottom=0;whiteSpace=wrap;html=1;" parent="1" vertex="1">
          <mxGeometry x="174" y="340" width="160" height="190" as="geometry" />
        </mxCell>
        <mxCell id="SDZ9bIVXgv3AQElnDy6A-7" value="&lt;div&gt;- activa: boolean&lt;/div&gt;&lt;div&gt;&lt;br&gt;&lt;/div&gt;" style="text;strokeColor=none;fillColor=none;align=left;verticalAlign=top;spacingLeft=4;spacingRight=4;overflow=hidden;rotatable=0;points=[[0,0.5],[1,0.5]];portConstraint=eastwest;whiteSpace=wrap;html=1;" parent="SDZ9bIVXgv3AQElnDy6A-6" vertex="1">
          <mxGeometry y="26" width="160" height="26" as="geometry" />
        </mxCell>
        <mxCell id="SDZ9bIVXgv3AQElnDy6A-8" value="" style="line;strokeWidth=1;fillColor=none;align=left;verticalAlign=middle;spacingTop=-1;spacingLeft=3;spacingRight=3;rotatable=0;labelPosition=right;points=[];portConstraint=eastwest;strokeColor=inherit;" parent="SDZ9bIVXgv3AQElnDy6A-6" vertex="1">
          <mxGeometry y="52" width="160" height="8" as="geometry" />
        </mxCell>
        <mxCell id="SDZ9bIVXgv3AQElnDy6A-9" value="&lt;div&gt;+ CuentaAhorros(saldo: float, tasa: float)&lt;/div&gt;&lt;div&gt;+ retirar(cantidad: float): void&lt;/div&gt;&lt;div&gt;+ consignar(cantidad: float): void&lt;/div&gt;&lt;div&gt;+ extractoMensual(): void&lt;/div&gt;&lt;div&gt;+ imprimir(): void&lt;/div&gt;&lt;div&gt;&lt;br&gt;&lt;/div&gt;" style="text;strokeColor=none;fillColor=none;align=left;verticalAlign=top;spacingLeft=4;spacingRight=4;overflow=hidden;rotatable=0;points=[[0,0.5],[1,0.5]];portConstraint=eastwest;whiteSpace=wrap;html=1;" parent="SDZ9bIVXgv3AQElnDy6A-6" vertex="1">
          <mxGeometry y="60" width="160" height="130" as="geometry" />
        </mxCell>
        <mxCell id="SDZ9bIVXgv3AQElnDy6A-10" value="CuentaCorriente" style="swimlane;fontStyle=1;align=center;verticalAlign=top;childLayout=stackLayout;horizontal=1;startSize=26;horizontalStack=0;resizeParent=1;resizeParentMax=0;resizeLast=0;collapsible=1;marginBottom=0;whiteSpace=wrap;html=1;" parent="1" vertex="1">
          <mxGeometry x="494" y="340" width="160" height="180" as="geometry" />
        </mxCell>
        <mxCell id="SDZ9bIVXgv3AQElnDy6A-11" value="&lt;div&gt;- sobregiro: float&lt;/div&gt;&lt;div&gt;&lt;br&gt;&lt;/div&gt;" style="text;strokeColor=none;fillColor=none;align=left;verticalAlign=top;spacingLeft=4;spacingRight=4;overflow=hidden;rotatable=0;points=[[0,0.5],[1,0.5]];portConstraint=eastwest;whiteSpace=wrap;html=1;" parent="SDZ9bIVXgv3AQElnDy6A-10" vertex="1">
          <mxGeometry y="26" width="160" height="26" as="geometry" />
        </mxCell>
        <mxCell id="SDZ9bIVXgv3AQElnDy6A-12" value="" style="line;strokeWidth=1;fillColor=none;align=left;verticalAlign=middle;spacingTop=-1;spacingLeft=3;spacingRight=3;rotatable=0;labelPosition=right;points=[];portConstraint=eastwest;strokeColor=inherit;" parent="SDZ9bIVXgv3AQElnDy6A-10" vertex="1">
          <mxGeometry y="52" width="160" height="8" as="geometry" />
        </mxCell>
        <mxCell id="SDZ9bIVXgv3AQElnDy6A-13" value="&lt;div&gt;+ CuentaCorriente(saldo: float, tasa: float)&lt;/div&gt;&lt;div&gt;+ retirar(cantidad: float): void&lt;/div&gt;&lt;div&gt;+ consignar(cantidad: float): void&lt;/div&gt;&lt;div&gt;+ extractoMensual(): void&lt;/div&gt;&lt;div&gt;+ imprimir(): void&lt;/div&gt;&lt;div&gt;&lt;br&gt;&lt;/div&gt;" style="text;strokeColor=none;fillColor=none;align=left;verticalAlign=top;spacingLeft=4;spacingRight=4;overflow=hidden;rotatable=0;points=[[0,0.5],[1,0.5]];portConstraint=eastwest;whiteSpace=wrap;html=1;" parent="SDZ9bIVXgv3AQElnDy6A-10" vertex="1">
          <mxGeometry y="60" width="160" height="120" as="geometry" />
        </mxCell>
        <mxCell id="SDZ9bIVXgv3AQElnDy6A-14" value="" style="endArrow=classic;html=1;rounded=0;entryX=0.331;entryY=0.98;entryDx=0;entryDy=0;entryPerimeter=0;" parent="1" target="SDZ9bIVXgv3AQElnDy6A-4" edge="1">
          <mxGeometry width="50" height="50" relative="1" as="geometry">
            <mxPoint x="250" y="340" as="sourcePoint" />
            <mxPoint x="300" y="290" as="targetPoint" />
          </mxGeometry>
        </mxCell>
        <mxCell id="SDZ9bIVXgv3AQElnDy6A-15" value="" style="endArrow=classic;html=1;rounded=0;entryX=0.61;entryY=0.971;entryDx=0;entryDy=0;entryPerimeter=0;" parent="1" target="SDZ9bIVXgv3AQElnDy6A-4" edge="1">
          <mxGeometry width="50" height="50" relative="1" as="geometry">
            <mxPoint x="580" y="340" as="sourcePoint" />
            <mxPoint x="630" y="290" as="targetPoint" />
          </mxGeometry>
        </mxCell>
      </root>
    </mxGraphModel>
  </diagram>
</mxfile>
